<?xml version="1.0" encoding="UTF-8"?>
<!DOCTYPE svg PUBLIC "-//W3C//DTD SVG 1.1//EN" "http://www.w3.org/Graphics/SVG/1.1/DTD/svg11.dtd">
<!-- Creator: CorelDRAW -->
<svg xmlns="http://www.w3.org/2000/svg" xml:space="preserve" width="0.199272in" height="0.167146in" version="1.1" style="shape-rendering:geometricPrecision; text-rendering:geometricPrecision; image-rendering:optimizeQuality; fill-rule:evenodd; clip-rule:evenodd"
viewBox="0 0 5.29 4.44"
 xmlns:xlink="http://www.w3.org/1999/xlink"
 xmlns:xodm="http://www.corel.com/coreldraw/odm/2003">
 <defs>
  <style type="text/css">
   <![CDATA[
    .fil6 {fill:url(#id0)}
    .fil2 {fill:url(#id1)}
    .fil3 {fill:url(#id2)}
    .fil0 {fill:url(#id3)}
    .fil4 {fill:url(#id4)}
    .fil1 {fill:url(#id5)}
    .fil5 {fill:url(#id6)}
   ]]>
  </style>
  <linearGradient id="id0" gradientUnits="userSpaceOnUse" x1="0.37" y1="3.01" x2="3.4" y2="3.25">
   <stop offset="0" style="stop-opacity:1; stop-color:#E23438"/>
   <stop offset="0.231373" style="stop-opacity:1; stop-color:#E94B3E"/>
   <stop offset="1" style="stop-opacity:1; stop-color:#F16244"/>
  </linearGradient>
  <linearGradient id="id1" gradientUnits="userSpaceOnUse" x1="3.03" y1="2.84" x2="4.29" y2="2.12">
   <stop offset="0" style="stop-opacity:1; stop-color:#3343BD"/>
   <stop offset="1" style="stop-opacity:1; stop-color:#211994"/>
  </linearGradient>
  <linearGradient id="id2" gradientUnits="userSpaceOnUse" xlink:href="#id1" x1="3.03" y1="2.84" x2="4.29" y2="2.12">
  </linearGradient>
  <linearGradient id="id3" gradientUnits="userSpaceOnUse" xlink:href="#id1" x1="3.03" y1="2.84" x2="4.29" y2="2.12">
  </linearGradient>
  <linearGradient id="id4" gradientUnits="userSpaceOnUse" xlink:href="#id1" x1="3.03" y1="2.84" x2="4.29" y2="2.12">
  </linearGradient>
  <linearGradient id="id5" gradientUnits="userSpaceOnUse" xlink:href="#id1" x1="3.03" y1="2.84" x2="4.29" y2="2.12">
  </linearGradient>
  <linearGradient id="id6" gradientUnits="userSpaceOnUse" xlink:href="#id1" x1="3.03" y1="2.84" x2="4.29" y2="2.12">
  </linearGradient>
 </defs>
 <g id="Layer_x0020_1">
  <metadata id="CorelCorpID_0Corel-Layer"/>
  <g id="_2499764587088">
   <g>
    <path class="fil0" d="M2.84 0.2c-0.22,0.03 -0.43,0.09 -0.62,0.18l0 0.24c0.2,-0.1 0.41,-0.18 0.65,-0.21l0.01 0.04 0.04 -0.05 0.09 -0.12 -0.12 -0.09 -0.05 -0.04 0.01 0.04z"/>
    <path class="fil1" d="M4.57 0.76c-0.42,-0.39 -0.95,-0.58 -1.48,-0.57l0.11 0.1 -0.1 0.11c0.48,-0.01 0.95,0.16 1.33,0.51l-0.03 0.03 0.06 -0 0.15 -0.01 -0.01 -0.15 -0 -0.06 -0.03 0.03z"/>
    <path class="fil2" d="M5.25 2.4c0.02,-0.57 -0.18,-1.1 -0.53,-1.5l-0.01 0.15 -0.15 -0.01c0.31,0.36 0.5,0.83 0.48,1.34l-0.04 -0 0.04 0.05 0.1 0.11 0.11 -0.1 0.05 -0.04 -0.04 -0z"/>
    <path class="fil3" d="M4.42 4c0.45,-0.35 0.73,-0.84 0.81,-1.37l-0.12 0.09 -0.09 -0.12c-0.07,0.47 -0.32,0.91 -0.72,1.23l-0.03 -0.03 -0.01 0.06 -0.02 0.15 0.15 0.02 0.06 0.01 -0.03 -0.03z"/>
    <path class="fil4" d="M2.64 4.38c0.56,0.13 1.11,0.03 1.57,-0.24l-0.15 -0.03 0.03 -0.15c-0.41,0.24 -0.91,0.33 -1.41,0.21l0.01 -0.04 -0.05 0.03 -0.13 0.08 0.08 0.13 0.03 0.05 0.01 -0.04z"/>
    <path class="fil5" d="M1.2 3.21c0.24,0.52 0.67,0.89 1.16,1.08l-0.06 -0.14 0.14 -0.06c-0.44,-0.17 -0.82,-0.51 -1.04,-0.97l0.04 -0.02 -0.06 -0.02 -0.04 -0.02 -0.11 0 -0.04 0.1 -0.02 0.06 0.04 -0.02z"/>
   </g>
   <path class="fil6" d="M2.93 3.27c0.57,-0.03 1.04,0.17 1.17,0.11 0.01,-0.17 -0.25,-0.33 -0.38,-0.42 -0.17,-0.11 -0.36,-0.16 -0.51,-0.24 0.38,-0.04 0.26,0.13 0.68,-0.06 0.22,-0.1 0.39,-0.2 0.46,-0.4 -0.2,-0.34 -0.6,-0.24 -0.72,-0.41 -0.08,-0.12 -0.06,-0.14 -0.19,-0.2 -0.2,0.1 -0.18,0.29 -0.08,0.48 -0.16,-0.04 -0.11,-0.03 -0.24,0.07 -0.32,0.27 -0.98,0.44 -1.4,0.44 -1.35,0.01 0.16,-1.01 0.4,-1.27 0.97,-1.06 -0.64,-1.84 -1.39,-1.09 -0.32,0.32 -0.72,1.1 -0.36,1.03 0.14,-0.02 0.75,-0.7 1.04,-0.27 0.1,0.16 0.03,0.29 0.01,0.42 0.07,-0.45 -0.26,-0.62 -0.59,-0.38 0.04,0.18 0.32,0.3 0.11,0.56 -0.16,0.2 -0.44,0.71 -0.26,0.99 0.08,0.13 0.17,0.12 0.29,0.2 -0.11,0.14 -0.18,0.15 -0.28,0.33 -0.23,0.41 0.09,0.25 -0.48,0.75 -0.06,0.07 -0.27,0.23 -0.21,0.37 0.05,0.1 0.98,-0.44 1.35,-0.61 0.5,-0.22 1.03,-0.38 1.57,-0.41zm1.02 -0.98c-0.01,0.01 -0,0 -0.01,0.01 0.01,0 0.03,0.01 0.03,0.01 0,0 0,0 0,0 -0,0 -0,0 -0,0 -0.02,0.01 -0.03,0.01 -0.04,0.01 -0.02,0 -0.03,0.01 -0.05,0.01 -0.02,0 -0.03,-0 -0.05,-0.01 -0.01,-0 -0.03,-0.01 -0.04,-0.02 -0.01,-0.01 -0.02,-0.02 -0.02,-0.03 -0.01,-0.01 -0.01,-0.02 -0.01,-0.03 0,-0.01 0,-0.02 0.01,-0.03 0.01,-0.01 0.02,-0.02 0.03,-0.03 0.01,-0.01 0.03,-0.01 0.04,-0.02 0.01,-0 0.03,-0.01 0.04,-0.01 0.01,-0 0.03,0 0.04,0.01 0.01,0 0.02,0.01 0.03,0.02 0.01,0.01 0.02,0.02 0.02,0.03 0,0.01 0,0.01 0.01,0.02 0,0.01 0,0.01 0,0.01 -0,0 -0,0.01 -0,0.01 -0,0 -0.01,0.02 -0.01,0.02 -0,0 -0.01,0.01 -0.01,0.01 -0,-0 -0.03,-0.01 -0.03,-0.02z"/>
  </g>
 </g>
</svg>
